<svg xmlns="http://www.w3.org/2000/svg" id="phonghoc" width="16" height="15.9" viewBox="0 0 16 15.9">
    <defs>
        <style>
            .cls-1{fill:#83e1b5}.cls-2{fill:#fff}
        </style>
    </defs>
    <g id="Group_11170" data-name="Group 11170">
        <g id="Group_11168" data-name="Group 11168">
            <g id="Group_11166" data-name="Group 11166">
                <path id="Path_11863" d="M-91.527 240.126h1.427v9.105l12.3-.145-.242-8.96h1.4l-7.8-5.352z" class="cls-1" data-name="Path 11863" transform="translate(92.04 -234.233)"/>
                <g id="eco_house-rkpt022nU" data-name="eco house-rkpt022nU">
                    <g id="Group_11165" data-name="Group 11165">
                        <path id="Path_11861" d="M13.171 4.815L11.258 6.25a.485.485 0 0 0-.106.585.459.459 0 0 0 .319.159c.106 0 .159-.053.266-.106l1.913-1.435a.417.417 0 0 0 .053-.585.355.355 0 0 0-.532-.053zM14.5 6.941c.106 0 .159 0 .213-.053l.85-.638a.471.471 0 0 0 .106-.585.471.471 0 0 0-.585-.106l-.85.638a.471.471 0 0 0-.106.585.707.707 0 0 0 .372.159z" class="cls-2" data-name="Path 11861" transform="translate(-5.719 -2.241)"/>
                        <path id="Path_11862" d="M16.644 5.7L9 .13a.4.4 0 0 0-.478 0l-7.38 5.627a.356.356 0 0 0-.159.425.473.473 0 0 0 .425.265h1.114v9.5h12.9V6.394h1.062c.212 0 .478 0 .478-.265a.659.659 0 0 0-.319-.425zm-6.371 7.273a3.362 3.362 0 0 1-1.964.8 1.752 1.752 0 0 1-1.115-.373c.9-.319 2.124-1.221 3.61-3.5a.383.383 0 0 0-.637-.425c-1.646 2.5-2.867 3.132-3.557 3.238-.531-.8-.743-2.017.69-3.4a7.481 7.481 0 0 1 2.761-1.38c.8-.265.956-.69.956-.69a.42.42 0 0 1 .425-.265.455.455 0 0 1 .372.319c-.053.212.743 3.982-1.54 5.681zm-7.7-7.326L8.734.926l6.53 4.725z" class="cls-2" data-name="Path 11862" transform="translate(-.962 -.05)"/>
                    </g>
                </g>
            </g>
            <path id="Path_11864" d="M-86.486 260.351c-1.607-1.026-1.383-.268-.669-2.276s.045-2.276 1.339-3.035a15.611 15.611 0 0 1 2.722-1.383c1.383-.58 2.99-1.473 2.99-1.473s.58-1.25.491 1.473.714 4.284-.491 5.578-4.776 2.143-6.382 1.116z" class="cls-2" data-name="Path 11864" transform="translate(90.992 -246.05)"/>
        </g>
        <g id="Group_11169" data-name="Group 11169" transform="translate(4.49 6.98)">
            <rect id="Rectangle_1166" width="3" height="3" class="cls-1" data-name="Rectangle 1166" rx=".5"/>
            <rect id="Rectangle_1166-2" width="3" height="3" class="cls-1" data-name="Rectangle 1166" rx=".5" transform="translate(4)"/>
            <rect id="Rectangle_1166-3" width="3" height="3" class="cls-1" data-name="Rectangle 1166" rx=".5" transform="translate(0 4)"/>
            <rect id="Rectangle_1166-4" width="3" height="3" class="cls-1" data-name="Rectangle 1166" rx=".5" transform="translate(4 4)"/>
        </g>
    </g>
</svg>
