<svg xmlns="http://www.w3.org/2000/svg" id="prefix__lớp_học" width="16" height="16.493" data-name="lớp học" viewBox="0 0 16 16.493">
    <defs>
        <style>
            .prefix__cls-1{fill:#fff}
        </style>
    </defs>
    <g id="prefix__lớp">
        <g id="prefix__Group_2978" data-name="Group 2978">
            <g id="prefix__Group_2976" data-name="Group 2976">
                <path id="prefix__Subtraction_1" d="M7.175 10.973H1.863a1.961 1.961 0 0 1-1.4-.508 1.674 1.674 0 0 1-.291-.365h8.693a1.673 1.673 0 0 1-.289.361 1.96 1.96 0 0 1-1.401.512zm1.862-3.062H0c0-.033.01-.066.016-.1l.012-.068a5.432 5.432 0 0 1 .172-.7A3.386 3.386 0 0 1 .488 6.4a2.448 2.448 0 0 1 .435-.562 1.9 1.9 0 0 1 .624-.391 2.174 2.174 0 0 1 .8-.143.81.81 0 0 1 .431.182c.132.086.283.183.451.289a2.565 2.565 0 0 0 .581.254 2.271 2.271 0 0 0 1.424 0 2.554 2.554 0 0 0 .583-.254l.45-.288a.811.811 0 0 1 .427-.187 2.174 2.174 0 0 1 .8.143 1.9 1.9 0 0 1 .624.391 2.458 2.458 0 0 1 .435.562 3.386 3.386 0 0 1 .288.65 5.432 5.432 0 0 1 .172.7l.028.165zM4.449 5.286a2.577 2.577 0 0 1-1.878-.775 2.551 2.551 0 0 1-.779-1.869A2.551 2.551 0 0 1 2.571.774 2.58 2.58 0 0 1 4.449 0a2.582 2.582 0 0 1 1.879.774 2.551 2.551 0 0 1 .778 1.869 2.551 2.551 0 0 1-.778 1.869 2.579 2.579 0 0 1-1.879.774z" class="prefix__cls-1" data-name="Subtraction 1" transform="translate(3.28)"/>
                <path id="prefix__Subtraction_3" d="M4.235 7H1.412V1.75H0V0h16v1.75h-1.412V7h-2.823V5.833h-7.53V7z" class="prefix__cls-1" data-name="Subtraction 3" transform="translate(0 9.493)"/>
                <path id="prefix__Rectangle_1161" fill="#3A6351" d="M0 0H8V1H0z" data-name="Rectangle 1161" transform="translate(4 13.493)"/>
            </g>
        </g>
    </g>
</svg>
