<svg xmlns="http://www.w3.org/2000/svg" id="prefix__giáo_trình" width="16" height="18.252" data-name="giáo trình" viewBox="0 0 16 18.252">
    <defs>
        <style>
            .prefix__cls-2{fill:#83e1b5}.prefix__cls-3{fill:#fff}
        </style>
    </defs>
    <g id="prefix__giáo_trình-2" data-name="giáo trình">
        <g id="prefix__agenda" opacity="0.46">
            <g id="prefix__Group_2973" data-name="Group 2973" transform="translate(1.064)">
                <g id="prefix__Group_2972" data-name="Group 2972">
                    <path id="prefix__Path_11854" d="M61.534 0A.528.528 0 0 0 61 .533v17.138a.528.528 0 0 0 .534.533h3.2L65.8 9.1 64.736 0zm11.74 3.2h-6.4a.528.528 0 0 0-.534.533v3.2a.528.528 0 0 0 .534.533h6.4a.528.528 0 0 0 .534-.533v-3.2a.528.528 0 0 0-.534-.533zm0 5.369h-6.4a.533.533 0 1 0 0 1.067h6.4a.533.533 0 1 0 0-1.067z" class="prefix__cls-2" data-name="Path 11854" transform="translate(-61)"/>
                </g>
            </g>
            <g id="prefix__Group_2975" data-name="Group 2975">
                <g id="prefix__Group_2974" data-name="Group 2974">
                    <path id="prefix__Path_11855" d="M44.333 0H35.8v18.2h8.533A2.668 2.668 0 0 0 47 15.538V2.667A2.668 2.668 0 0 0 44.333 0zm0 9.636h-6.4a.533.533 0 1 1 0-1.067h6.4a.533.533 0 0 1 0 1.067zm.533-2.7a.528.528 0 0 1-.533.533h-6.4a.528.528 0 0 1-.533-.533v-3.2a.528.528 0 0 1 .533-.533h6.4a.528.528 0 0 1 .533.533zm-11.2-4.8h-2.133a.533.533 0 1 0 0 1.067h2.133a.533.533 0 1 0 0-1.067zm0 3.2h-2.133a.533.533 0 1 0 0 1.067h2.133a.533.533 0 1 0 0-1.067zm0 3.236h-2.133a.533.533 0 1 0 0 1.067h2.133a.533.533 0 1 0 0-1.067zm0 6.436h-2.133a.533.533 0 1 0 0 1.067h2.133a.533.533 0 1 0 0-1.067zm0-3.2h-2.133a.533.533 0 0 0 0 1.067h2.133a.533.533 0 0 0 0-1.067z" class="prefix__cls-3" data-name="Path 11855" transform="translate(-31)"/>
                </g>
            </g>
        </g>
        <g id="prefix__agenda-2" data-name="agenda" transform="translate(0 .048)">
            <g id="prefix__Group_2973-2" data-name="Group 2973" transform="translate(1.064)">
                <g id="prefix__Group_2972-2" data-name="Group 2972">
                    <path id="prefix__Path_11854-2" d="M61.534 0A.528.528 0 0 0 61 .533v17.138a.528.528 0 0 0 .534.533h3.2L65.8 9.1 64.736 0zm11.74 3.2h-6.4a.528.528 0 0 0-.534.533v3.2a.528.528 0 0 0 .534.533h6.4a.528.528 0 0 0 .534-.533v-3.2a.528.528 0 0 0-.534-.533zm0 5.369h-6.4a.533.533 0 1 0 0 1.067h6.4a.533.533 0 1 0 0-1.067z" class="prefix__cls-2" data-name="Path 11854" transform="translate(-61)"/>
                </g>
            </g>
            <g id="prefix__Group_2975-2" data-name="Group 2975">
                <g id="prefix__Group_2974-2" data-name="Group 2974">
                    <path id="prefix__Path_11855-2" d="M44.333 0H35.8v18.2h8.533A2.668 2.668 0 0 0 47 15.538V2.667A2.668 2.668 0 0 0 44.333 0zm0 9.636h-6.4a.533.533 0 1 1 0-1.067h6.4a.533.533 0 0 1 0 1.067zm.533-2.7a.528.528 0 0 1-.533.533h-6.4a.528.528 0 0 1-.533-.533v-3.2a.528.528 0 0 1 .533-.533h6.4a.528.528 0 0 1 .533.533zm-11.2-4.8h-2.133a.533.533 0 1 0 0 1.067h2.133a.533.533 0 1 0 0-1.067zm0 3.2h-2.133a.533.533 0 1 0 0 1.067h2.133a.533.533 0 1 0 0-1.067zm0 3.236h-2.133a.533.533 0 1 0 0 1.067h2.133a.533.533 0 1 0 0-1.067zm0 6.436h-2.133a.533.533 0 1 0 0 1.067h2.133a.533.533 0 1 0 0-1.067zm0-3.2h-2.133a.533.533 0 0 0 0 1.067h2.133a.533.533 0 0 0 0-1.067z" class="prefix__cls-3" data-name="Path 11855" transform="translate(-31)"/>
                </g>
            </g>
        </g>
    </g>
</svg>
