<svg xmlns="http://www.w3.org/2000/svg" id="prefix__language" width="19" height="19" viewBox="0 0 19 19">
    <defs>
        <style>
            .prefix__cls-1{fill:#fff}
        </style>
    </defs>
    <g id="prefix__Group_2963" data-name="Group 2963" transform="translate(4.464 5.084)">
        <g id="prefix__Group_2962" data-name="Group 2962">
            <path id="prefix__Path_11848" d="M120.976 137h-.238l-.445 2.227h1.129z" class="prefix__cls-1" data-name="Path 11848" transform="translate(-120.293 -137)"/>
        </g>
    </g>
    <g id="prefix__Group_2965" data-name="Group 2965" transform="translate(14.153 9.537)">
        <g id="prefix__Group_2964" data-name="Group 2964">
            <path id="prefix__Path_11849" d="M381.374 257a5.817 5.817 0 0 0 .914 1.613 5.876 5.876 0 0 0 .951-1.613z" class="prefix__cls-1" data-name="Path 11849" transform="translate(-381.374 -257)"/>
        </g>
    </g>
    <g id="prefix__Group_2967" data-name="Group 2967" transform="translate(9.005 3.377)">
        <g id="prefix__Group_2966" data-name="Group 2966">
            <path id="prefix__Path_11850" d="M250.988 91h-6.913l1.441 11.566a1.728 1.728 0 0 1-.413 1.267l-2.441 2.79h8.325a1.672 1.672 0 0 0 1.67-1.67V92.707A1.7 1.7 0 0 0 250.988 91zm0 6.16h-.149a7.064 7.064 0 0 1-1.339 2.44c.409.374.846.681 1.281 1.024a.556.556 0 1 1-.7.869c-.472-.373-.916-.685-1.359-1.092-.443.407-.85.719-1.322 1.092a.556.556 0 0 1-.7-.869c.435-.343.835-.65 1.244-1.024a7.025 7.025 0 0 1-1.3-2.438h-.144a.557.557 0 0 1 0-1.113h1.67v-.559a.557.557 0 0 1 1.113 0v.557h1.707a.557.557 0 0 1 0 1.113z" class="prefix__cls-1" data-name="Path 11850" transform="translate(-242.663 -91)"/>
        </g>
    </g>
    <g id="prefix__Group_2969" data-name="Group 2969">
        <g id="prefix__Group_2968" data-name="Group 2968">
            <path id="prefix__Path_11851" d="M9.061 1.463A1.672 1.672 0 0 0 7.4 0H1.67A1.672 1.672 0 0 0 0 1.67v12.32a1.672 1.672 0 0 0 1.67 1.67h8.778c.162-.186.3-.3.3-.544.006-.061-1.68-13.593-1.687-13.653zM6.826 10.64a.556.556 0 0 1-.655-.437l-.356-1.779H4.241L3.886 10.2a.557.557 0 1 1-1.092-.219l1.113-5.563a.557.557 0 0 1 .546-.447H5.6a.557.557 0 0 1 .546.447l1.117 5.566a.557.557 0 0 1-.437.656z" class="prefix__cls-1" data-name="Path 11851"/>
        </g>
    </g>
    <g id="prefix__Group_2971" data-name="Group 2971" transform="translate(6.504 16.773)">
        <g id="prefix__Group_2970" data-name="Group 2970">
            <path id="prefix__Path_11852" d="M175.261 452l.1.764a1.683 1.683 0 0 0 .963 1.293l1.864-2.057z" class="prefix__cls-1" data-name="Path 11852" transform="translate(-175.261 -452)"/>
        </g>
    </g>
</svg>
