<svg xmlns="http://www.w3.org/2000/svg" id="prefix__marketing" width="17.991" height="14.244" viewBox="0 0 17.991 14.244">
    <g id="prefix__Group_11172" data-name="Group 11172">
        <path id="prefix__Rectangle_1163" fill="#83e1b5" d="M0 0H6V3H0z" data-name="Rectangle 1163" transform="translate(2.222 4.168)"/>
        <g id="prefix__marketing-HJ9ec23h8">
            <g id="prefix__Group_2981" data-name="Group 2981">
                <path id="prefix__Path_11859" fill="#fff" d="M16.346 2.4a.375.375 0 0 0-.53.53 4.879 4.879 0 0 1 0 6.892.375.375 0 1 0 .53.53 5.629 5.629 0 0 0 0-7.952zm-3.6 1.378V.375a.375.375 0 0 0-.616-.288L7.736 3.749H1.874A1.876 1.876 0 0 0 0 5.623v1.5A1.876 1.876 0 0 0 1.874 9h1.262l.615 4.92a.375.375 0 0 0 .372.328h3.749a.374.374 0 0 0 .345-.522L6.192 9h1.567l4.4 2.936a.375.375 0 0 0 .583-.312V8.97a2.624 2.624 0 0 0 0-5.195zm-7.873 2.97h-1.5a.375.375 0 1 1 0-.75h1.5a.375.375 0 1 1 0 .75z" data-name="Path 11859"/>
            </g>
        </g>
    </g>
</svg>
