<svg xmlns="http://www.w3.org/2000/svg" width="17" height="18.512" viewBox="0 0 17 18.512">
    <defs>
        <style>
            .prefix__cls-2{fill:#83e1b5}
        </style>
    </defs>
    <g id="prefix__medal" transform="translate(-20.75)">
        <path id="prefix__Union_4" fill="#fff" d="M0 7.326a7.354 7.354 0 1 1 7.354 7.327A7.34 7.34 0 0 1 0 7.326z" data-name="Union 4" transform="translate(21.879)"/>
        <g id="prefix__Group_15175" data-name="Group 15175" transform="translate(20.75 11.651)">
            <path id="prefix__Path_11880" d="M23.271 319.7l-2.521 4.37 2.942-.156 1.337 2.626 2.332-4.043a7.32 7.32 0 0 1-4.09-2.797z" class="prefix__cls-2" data-name="Path 11880" transform="translate(-20.75 -319.678)"/>
            <path id="prefix__Path_11881" d="M309.129 319.1a7.321 7.321 0 0 1-4.079 2.811l2.339 4.05 1.337-2.626 2.942.156z" class="prefix__cls-2" data-name="Path 11881" transform="translate(-294.668 -319.1)"/>
        </g>
        <path id="prefix__Path_11882" d="M158.419 106.71a.277.277 0 0 0-.153-.472l-2.1-.305a.273.273 0 0 1-.207-.153l-.937-1.9a.277.277 0 0 0-.5 0l-.934 1.9a.289.289 0 0 1-.207.153l-2.1.305a.277.277 0 0 0-.153.472l1.515 1.478a.28.28 0 0 1 .08.243l-.356 2.085a.277.277 0 0 0 .4.291l1.874-.984a.271.271 0 0 1 .258 0l1.874.984a.278.278 0 0 0 .4-.291l-.36-2.085a.273.273 0 0 1 .08-.243z" class="prefix__cls-2" data-name="Path 11882" transform="translate(-125.545 -99.937)"/>
    </g>
</svg>
