<svg xmlns="http://www.w3.org/2000/svg" width="17" height="17" viewBox="0 0 17 17">
    <defs>
        <style>
            .prefix__cls-2{fill:#fff}
        </style>
    </defs>
    <g id="prefix__Group_15174" data-name="Group 15174" transform="translate(-1389.777 -1646.777)">
        <circle id="prefix__Ellipse_329" cx="8.277" cy="8.277" r="8.277" fill="#83e1b5" data-name="Ellipse 329" transform="translate(1390 1647)"/>
        <g id="prefix__target" transform="translate(1389.777 1646.777)">
            <path id="prefix__Path_11878" d="M129.071 125.963v-1.025h1a4.656 4.656 0 0 0-4.106-4.106v1h-1.025v-1a4.656 4.656 0 0 0-4.106 4.106h1v1.025h-1a4.656 4.656 0 0 0 4.106 4.106v-1h1.025v1a4.656 4.656 0 0 0 4.106-4.106zm-3.621 2.084a2.6 2.6 0 1 1 2.6-2.6 2.6 2.6 0 0 1-2.6 2.6z" class="prefix__cls-2" data-name="Path 11878" transform="translate(-116.95 -116.95)"/>
            <circle id="prefix__Ellipse_328" cx="1" cy="1" r="1" class="prefix__cls-2" data-name="Ellipse 328" transform="translate(7.5 7.5)"/>
            <path id="prefix__Path_11879" d="M14.51 2.49A8.5 8.5 0 0 0 2.49 14.51 8.5 8.5 0 0 0 14.51 2.49zM9 15.009H8v-1.02A5.521 5.521 0 0 1 3.011 9h-1.02V8h1.02A5.521 5.521 0 0 1 8 3.011v-1.02h1v1.02A5.521 5.521 0 0 1 13.989 8h1.02v1h-1.02A5.521 5.521 0 0 1 9 13.989z" class="prefix__cls-2" data-name="Path 11879"/>
        </g>
    </g>
</svg>
