<svg xmlns="http://www.w3.org/2000/svg" id="prefix__nhân_viên" width="16" height="18.667" data-name="nhân viên" viewBox="0 0 16 18.667">
    <path id="prefix__Rectangle_1164" fill="#83e1b5" d="M0 0H13.775V14H0z" data-name="Rectangle 1164" transform="translate(1.225 1.429)"/>
    <g id="prefix__user-SkSZi2228">
        <g id="prefix__Group_2982" data-name="Group 2982">
            <path id="prefix__Path_11860" fill="#fff" fill-rule="evenodd" d="M14.237 0H1.792A1.783 1.783 0 0 0 .015 1.778v12.444A1.783 1.783 0 0 0 1.792 16h3.556l2.667 2.667L10.681 16h3.556a1.783 1.783 0 0 0 1.778-1.778V1.778A1.783 1.783 0 0 0 14.237 0zM8.015 2.933a2.4 2.4 0 1 1-2.4 2.4 2.39 2.39 0 0 1 2.4-2.4zm5.333 9.511H2.681v-.8c0-1.778 3.556-2.756 5.333-2.756s5.333.978 5.333 2.756v.8z" data-name="Path 11860" transform="translate(-.015)"/>
        </g>
    </g>
</svg>
