<svg xmlns="http://www.w3.org/2000/svg" id="prefix__giaovien" width="19.21" height="19.053" viewBox="0 0 19.21 19.053">
    <defs>
        <style>
            .prefix__cls-2{fill:#fff}
        </style>
    </defs>
    <g id="prefix__Group_11167" data-name="Group 11167">
        <path id="prefix__Rectangle_1165" fill="#83e1b5" d="M0 0H10.404V9.605H0z" data-name="Rectangle 1165" transform="translate(8.28 .435)"/>
        <g id="prefix__XMLID_129_">
            <path id="prefix__XMLID_134_" d="M208.552 5.656h-10.028a.609.609 0 0 0-.6.615v4.337l.436-.52a1.384 1.384 0 0 1 .771-.463V6.886h8.821v8.03h-8.821v-1.345l-.272.324a1.393 1.393 0 0 1-.935.492v1.143a.609.609 0 0 0 .6.615h3.257l-1.655 7.651a.636.636 0 0 0 .476.758.625.625 0 0 0 .743-.484l1.714-7.924h1l1.714 7.924a.627.627 0 0 0 .609.5.618.618 0 0 0 .135-.015.635.635 0 0 0 .475-.758l-1.654-7.651h3.218a.609.609 0 0 0 .6-.615v-9.26a.61.61 0 0 0-.604-.615z" class="prefix__cls-2" transform="translate(-189.946 -5.515)"/>
            <path id="prefix__XMLID_132_" d="M173.394 93.432a.233.233 0 0 0-.3-.131l-3.555 1.255a.781.781 0 0 0-1.069.109l-1.128 1.317-1-.857c.007.071.022.14.022.212V97.2l.557.477a.781.781 0 0 0 1.1-.085l1.343-1.57 1.083-.634 2.85-1.668a.232.232 0 0 0 .097-.288z" class="prefix__cls-2" transform="translate(-159.739 -89.68)"/>
            <path id="prefix__XMLID_131_" d="M4.237 105.776h-.67a1.564 1.564 0 0 0-1.251.629L.26 108.3a.78.78 0 0 0-.06 1.1l1.678 1.873a.78.78 0 1 0 1.162-1.041l-1.156-1.291 1.643-1.47-.957 1.3.936 1.045A1.4 1.4 0 0 1 2 112.073v7.476a.936.936 0 1 0 1.873 0v-5.58H4.5v5.58a1.548 1.548 0 0 1-.2.741.925.925 0 0 0 .566.2.936.936 0 0 0 .937-.936v-12.2a1.571 1.571 0 0 0-1.566-1.578z" class="prefix__cls-2" transform="translate(0 -101.432)"/>
            <path id="prefix__XMLID_130_" d="M54.867 5.433a1.824 1.824 0 0 0 2.658-1.613 1.825 1.825 0 1 0-2.658 1.614z" class="prefix__cls-2" transform="translate(-51.799 -1.995)"/>
        </g>
    </g>
</svg>
